<?xml version="1.0" encoding="UTF-8" standalone="no"?>
<svg
   xmlns:dc="http://purl.org/dc/elements/1.1/"
   xmlns:cc="http://creativecommons.org/ns#"
   xmlns:rdf="http://www.w3.org/1999/02/22-rdf-syntax-ns#"
   xmlns:svg="http://www.w3.org/2000/svg"
   xmlns="http://www.w3.org/2000/svg"
   viewBox="0 0 3520 2400"
   height="2400"
   width="3520"
   xml:space="preserve"
   id="svg2"
   version="1.1"><metadata
     id="metadata8"><rdf:RDF><cc:Work
         rdf:about=""><dc:format>image/svg+xml</dc:format><dc:type
           rdf:resource="http://purl.org/dc/dcmitype/StillImage" /></cc:Work></rdf:RDF></metadata><defs
     id="defs6" /><g
     transform="matrix(1.3333333,0,0,-1.3333333,0,2400)"
     id="g10"><g
       transform="scale(0.1)"
       id="g12"><g
         transform="scale(1.61963)"
         id="g14"><path
           id="path16"
           style="fill:#f7f6f3;fill-opacity:1;fill-rule:nonzero;stroke:none"
           d="M 16300,0 H 0 V 11113.6 H 16300 V 0" /></g><path
         id="path18"
         style="fill:#e95d23;fill-opacity:1;fill-rule:nonzero;stroke:none"
         d="m 11156.1,3721.6 c 0,-19.4 3.3,-33.2 10,-41.6 6.6,-8.3 16.1,-12.4 28.3,-12.4 7.2,0 14.9,0.5 23.2,1.6 8.3,1.1 17.8,3.6 28.3,7.5 l 7.5,-52.4 c -8.9,-4.4 -21.2,-8 -37,-10.8 -15.8,-2.7 -29.5,-4.1 -41.2,-4.1 -24.9,0 -45.4,7 -61.5,21.2 -16.1,14.1 -24.1,38.1 -24.1,71.9 v 498.7 h 66.5 v -479.6" /><path
         id="path20"
         style="fill:#e95d23;fill-opacity:1;fill-rule:nonzero;stroke:none"
         d="m 11536.8,3827.2 c 0,-21.1 2.1,-41.3 6.3,-60.7 4.1,-19.4 10.6,-36.3 19.5,-50.7 8.9,-14.4 20.5,-26.1 34.9,-34.9 14.4,-8.9 31.9,-13.3 52.4,-13.3 75.3,-0.6 113,52.6 113,159.6 0,21.6 -2,42.1 -6.2,61.5 -4.1,19.4 -10.7,36.3 -19.5,50.7 -8.9,14.4 -20.5,25.9 -34.9,34.5 -14.5,8.6 -31.9,12.9 -52.4,12.9 -75.4,0.5 -113.1,-52.7 -113.1,-159.6 z m -69,0 c 0,70.3 15.7,124.2 47,161.6 31.3,37.5 76.3,56.2 135.1,56.2 31,0 58,-5.2 81,-15.4 23,-10.3 42,-25 57,-44.1 14.9,-19.1 26,-42.1 33.2,-69 7.2,-26.9 10.8,-56.6 10.8,-89.3 0,-70.4 -15.6,-124.3 -46.9,-161.7 -31.3,-37.4 -76.4,-56.1 -135.1,-56.1 -31.1,0 -58.1,5.1 -81.1,15.3 -23,10.3 -41.9,25 -56.9,44.1 -15,19.1 -26.1,42.1 -33.3,69 -7.2,26.9 -10.8,56.7 -10.8,89.4" /><path
         id="path22"
         style="fill:#e95d23;fill-opacity:1;fill-rule:nonzero;stroke:none"
         d="m 12254.2,3668.4 c 28.3,0 50.4,7 66.5,21.2 16.1,14.1 27.4,36.2 34.1,66.1 v 212.8 c -22.2,10.5 -50.5,15.8 -84.8,15.8 -37.7,0 -67.3,-12.8 -88.9,-38.3 -21.7,-25.5 -32.5,-65.4 -32.5,-119.7 0,-23.2 2,-44.6 5.8,-64 3.9,-19.4 10,-36 18.3,-49.8 8.4,-13.9 19.2,-24.7 32.5,-32.5 13.3,-7.7 29.6,-11.6 49,-11.6 z m 167.1,-68.2 c 0,-53.7 -14.3,-93.3 -42.8,-118.8 -28.6,-25.5 -70.8,-38.3 -126.8,-38.3 -33.2,0 -60,2.1 -80.2,6.3 -20.2,4.1 -37.6,9.5 -52,16.2 l 17.5,56.5 c 12.7,-5 26.9,-9.7 42.4,-14.1 15.5,-4.5 35.7,-6.7 60.7,-6.7 23.2,0 42.2,2.1 56.9,6.3 14.7,4.1 26.5,11 35.3,20.7 8.9,9.7 15,22.2 18.3,37.4 3.3,15.3 5,33.4 5,54.5 v 39.9 h -3.3 c -11.1,-16.1 -25.2,-28.4 -42.4,-37 -17.2,-8.6 -39.6,-12.9 -67.3,-12.9 -56,0 -97.2,17.5 -123.5,52.4 -26.3,34.9 -39.5,89.2 -39.5,162.9 0,70.9 16.9,124.8 50.7,161.7 33.8,36.8 83.7,55.3 149.7,55.3 31.6,0 58.6,-2.5 81,-7.5 22.5,-5 42.5,-10.8 60.3,-17.5 v -417.3" /><path
         id="path24"
         style="fill:#e95d23;fill-opacity:1;fill-rule:nonzero;stroke:none"
         d="m 12761.3,3827.2 c 0,-21.1 2,-41.3 6.2,-60.7 4.2,-19.4 10.7,-36.3 19.5,-50.7 8.9,-14.4 20.5,-26.1 34.9,-34.9 14.5,-8.9 31.9,-13.3 52.4,-13.3 75.4,-0.6 113.1,52.6 113.1,159.6 0,21.6 -2.1,42.1 -6.3,61.5 -4.1,19.4 -10.7,36.3 -19.5,50.7 -8.9,14.4 -20.5,25.9 -34.9,34.5 -14.4,8.6 -31.9,12.9 -52.4,12.9 -75.4,0.5 -113,-52.7 -113,-159.6 z m -69,0 c 0,70.3 15.6,124.2 46.9,161.6 31.3,37.5 76.4,56.2 135.1,56.2 31,0 58,-5.2 81.1,-15.4 22.9,-10.3 41.9,-25 56.9,-44.1 15,-19.1 26,-42.1 33.2,-69 7.2,-26.9 10.9,-56.6 10.9,-89.3 0,-70.4 -15.7,-124.3 -47,-161.7 -31.3,-37.4 -76.4,-56.1 -135.1,-56.1 -31,0 -58.1,5.1 -81,15.3 -23,10.3 -42,25 -57,44.1 -14.9,19.1 -26,42.1 -33.2,69 -7.2,26.9 -10.8,56.7 -10.8,89.4" /><path
         id="path26"
         style="fill:#e95d23;fill-opacity:1;fill-rule:nonzero;stroke:none"
         d="m 13272.5,4035 h 64.8 v 82.3 l 66.5,19.1 V 4035 h 113.1 v -58.2 h -113.1 v -230.3 c 0,-28.8 3.6,-49.2 10.8,-61.1 7.2,-11.9 19.4,-17.8 36.6,-17.8 14.4,0 26.6,1.5 36.6,4.5 9.9,3.1 21,7.1 33.2,12.1 l 15,-50.7 c -15,-7.2 -31.3,-13 -49.1,-17.5 -17.7,-4.4 -36.8,-6.6 -57.3,-6.6 -33.8,0 -57.7,9.5 -71.5,28.6 -13.9,19.2 -20.8,51.2 -20.8,96.1 v 242.7 h -64.8 v 58.2" /><path
         id="path28"
         style="fill:#e95d23;fill-opacity:1;fill-rule:nonzero;stroke:none"
         d="m 13897.9,3765.7 23.4,-79.8 h 4.2 l 18.3,80.6 80.9,268.5 h 66.5 l -123,-373.2 c -9.4,-27.2 -18.7,-53.5 -27.8,-79 -9.2,-25.5 -19.3,-48.2 -30.4,-68.2 -11.1,-19.9 -23.5,-35.9 -37.4,-47.8 -13.8,-11.9 -29.9,-17.9 -48.2,-17.9 -19.9,0 -36.3,2.8 -49,8.3 l 11.6,57.4 c 7.2,-2.8 14.2,-4.1 20.8,-4.1 15.5,0 30.5,8.1 44.9,24.5 14.4,16.3 26.3,44.4 35.7,84.4 l -167,415.6 h 76.4 l 100.1,-269.3" /><path
         id="path30"
         style="fill:#e95d23;fill-opacity:1;fill-rule:nonzero;stroke:none"
         d="m 14496.9,3986.8 c -28.3,0 -50.6,-7.4 -66.9,-22.1 -16.4,-14.7 -27.9,-37 -34.5,-66.9 v -206.1 c 10,-7.8 21.3,-13.8 34.1,-17.9 12.7,-4.2 29.6,-6.2 50.7,-6.2 38.2,0 68.6,14.2 91,42.8 22.4,28.5 33.7,70.5 33.7,125.9 0,22.7 -2,43.4 -5.9,61.9 -3.8,18.6 -10.1,34.4 -18.7,47.4 -8.6,13 -19.6,23.1 -33.2,30.4 -13.6,7.2 -30.4,10.8 -50.3,10.8 z M 14329,4035 h 45.7 l 12.5,-49.9 h 3.3 c 12.7,19.4 29.2,34.2 49.5,44.5 20.2,10.2 43.3,15.4 69.4,15.4 55.4,0 96.7,-16.4 123.8,-49.1 27.2,-32.7 40.8,-86.2 40.8,-160.4 0,-34.9 -4.6,-66.4 -13.8,-94.4 -9.1,-28 -22,-51.6 -38.6,-71 -16.6,-19.4 -36.7,-34.4 -60.3,-44.9 -23.5,-10.6 -49.7,-15.8 -78.5,-15.8 -20.5,0 -36.7,1.2 -48.7,3.7 -11.9,2.5 -24.8,6.8 -38.6,12.9 V 3453.1 H 14329 V 4035" /><path
         id="path32"
         style="fill:#e95d23;fill-opacity:1;fill-rule:nonzero;stroke:none"
         d="m 15105.4,3986.8 c -32.7,0 -58.9,-8.6 -78.6,-25.8 -19.7,-17.2 -31.4,-46.6 -35.3,-88.1 h 206.1 c 0,42.1 -8,71.6 -24.1,88.5 -16.1,16.9 -38.8,25.4 -68.1,25.4 z m 142.9,-334.2 c -16.6,-13.3 -37.5,-23.8 -62.7,-31.6 -25.2,-7.7 -52,-11.6 -80.2,-11.6 -31.6,0 -59,5.1 -82.3,15.3 -23.3,10.3 -42.4,25 -57.4,44.1 -14.9,19.1 -26,42 -33.2,68.6 -7.2,26.6 -10.8,56.5 -10.8,89.8 0,70.9 15.8,124.9 47.3,162.1 31.6,37.1 76.8,55.7 135.5,55.7 18.9,0 37.7,-2.1 56.6,-6.3 18.8,-4.1 35.7,-12 50.7,-23.7 14.9,-11.6 27.1,-28.1 36.5,-49.4 9.5,-21.4 14.2,-49.5 14.2,-84.4 0,-18.3 -1.7,-38.5 -5,-60.7 h -266.8 c 0,-24.4 2.5,-46 7.4,-64.8 5,-18.9 12.8,-34.8 23.3,-47.8 10.5,-13.1 24.2,-23 41.1,-30 17,-6.9 37.6,-10.3 62,-10.3 18.8,0 37.7,3.3 56.5,9.9 18.8,6.7 33,14.4 42.4,23.3 l 24.9,-48.2" /><path
         id="path34"
         style="fill:#e95d23;fill-opacity:1;fill-rule:nonzero;stroke:none"
         d="m 11371.8,5321.9 28.7,266.1 h -11.5 l -82.3,-214.4 -285.2,-499.7 h -84.3 l -300.5,501.6 -84.2,212.5 h -9.6 l 38.3,-264.2 V 4627 h -248.9 v 1340 h 239.3 l 358,-612.6 63.2,-153.1 h 7.6 l 57.5,157 338.8,608.7 h 237.4 V 4627 h -262.3 v 694.9" /><path
         id="path36"
         style="fill:#e95d23;fill-opacity:1;fill-rule:nonzero;stroke:none"
         d="m 12725.2,5967 h 248.9 v -865.3 c 0,-86.8 -11.5,-161.4 -34.5,-223.9 -22.9,-62.6 -54.8,-114.3 -95.7,-155.1 -40.8,-40.9 -90.6,-70.8 -149.3,-90 -58.7,-19.1 -123.2,-28.7 -193.3,-28.7 -339.5,0 -509.3,155.1 -509.3,465.2 V 5967 h 262.3 v -846.1 c 0,-52.4 4.8,-96.7 14.4,-133.1 9.5,-36.3 24.5,-65.7 44.9,-88 20.4,-22.4 46,-38.3 76.6,-47.9 30.7,-9.6 66.4,-14.3 107.2,-14.3 80.4,0 138.5,22.3 174.2,67 35.8,44.6 53.6,116.7 53.6,216.3 V 5967" /><path
         id="path38"
         style="fill:#e95d23;fill-opacity:1;fill-rule:nonzero;stroke:none"
         d="m 13910.2,4986.9 c 0,40.8 -15,74 -45,99.5 -30,25.5 -67.6,48.8 -112.9,69.9 -45.3,21.1 -94.5,42.7 -147.4,65.1 -53,22.3 -102.1,49.8 -147.4,82.3 -45.3,32.6 -83,73.1 -113,121.6 -30,48.5 -45,110.3 -45,185.7 0,65.1 10.9,121.5 32.6,169.4 21.7,47.8 52.6,87.7 92.8,119.6 40.2,31.9 87.8,55.6 142.7,70.9 54.8,15.3 116.1,22.9 183.7,22.9 77.9,0 151.3,-6.7 220.2,-20.1 68.9,-13.4 125.7,-32.8 170.4,-58.3 l -82.4,-220.2 c -28,17.9 -70.1,34.1 -126.3,48.8 -56.2,14.7 -116.8,22 -181.9,22 -61.2,0 -108.1,-12.1 -140.7,-36.3 -32.5,-24.3 -48.8,-56.8 -48.8,-97.7 0,-38.3 15,-70.2 45,-95.7 30,-25.5 67.6,-49.1 113,-70.8 45.2,-21.7 94.4,-44.1 147.4,-67 52.9,-23 102.1,-50.8 147.4,-83.3 45.3,-32.5 82.9,-72.8 112.9,-120.6 30,-47.9 45,-107.5 45,-179 0,-71.5 -11.8,-133.1 -35.4,-184.7 -23.6,-51.7 -56.8,-94.8 -99.6,-129.3 -42.7,-34.4 -94.4,-60 -155,-76.5 -60.7,-16.6 -127.3,-24.9 -200.1,-24.9 -95.7,0 -179.9,8.9 -252.7,26.8 -72.7,17.8 -126.3,35.7 -160.8,53.6 l 84.2,224 c 14.1,-7.7 32.3,-16 54.6,-24.9 22.3,-9 47.5,-17.3 75.6,-24.9 28.1,-7.7 57.8,-14.1 89,-19.2 31.3,-5.1 63.5,-7.6 96.7,-7.6 77.8,0 137.5,13.1 179,39.2 41.5,26.2 62.2,66.1 62.2,119.7" /><path
         id="path40"
         style="fill:#e95d23;fill-opacity:1;fill-rule:nonzero;stroke:none"
         d="m 14507.5,5967 h 262.3 V 4627 h -262.3 v 1340" /><path
         id="path42"
         style="fill:#e95d23;fill-opacity:1;fill-rule:nonzero;stroke:none"
         d="m 16067.7,4681.8 c -40.9,-29.1 -92.8,-50 -156,-62.6 -63.2,-12.7 -128,-19 -194.3,-19 -80.4,0 -156.7,12.4 -228.8,37.3 -72.1,24.9 -135.6,65.1 -190.5,120.6 -54.9,55.5 -98.6,127.6 -131.1,216.3 -32.6,88.7 -48.8,196.3 -48.8,322.6 0,131.4 18.2,241.5 54.5,330.2 36.4,88.7 83.6,160.2 141.7,214.4 58.1,54.3 122.8,93.2 194.3,116.8 71.5,23.6 142.9,35.4 214.4,35.4 76.6,0 141.3,-5.1 194.3,-15.3 53,-10.2 96.7,-22.3 131.2,-36.3 l -51.7,-222.1 c -29.4,14 -64.2,24.2 -104.4,30.6 -40.2,6.4 -89,9.6 -146.4,9.6 -106,0 -191.1,-37.8 -255.6,-113.2 -64.4,-75.5 -96.7,-192.5 -96.7,-351 0,-69.1 7.7,-132.1 23,-189 15.3,-56.9 38.6,-105.5 69.9,-145.8 31.2,-40.3 70.2,-71.6 116.8,-94 46.5,-22.4 100.5,-33.6 161.7,-33.6 57.5,0 106,5.8 145.5,17.3 39.6,11.4 74,26.1 103.4,44 l 53.6,-213.2" /><path
         id="path44"
         style="fill:#e95d23;fill-opacity:1;fill-rule:nonzero;stroke:none"
         d="m 15691.5,8626.11 h -3088.1 v 691.98 c 0,14.66 -1.5,28.97 -4.4,42.78 l 0.5,0.08 c 97.3,17.51 194.7,42.74 290.7,75.66 430.8,146.41 778.3,451.13 978.6,858.79 201,407.8 231.2,869.4 84.8,1299.5 -120.5,355.2 -372,641.7 -708.3,807 -336.2,166 -717.3,190.5 -1071.8,70.1 -294.2,-100.2 -532.4,-309 -669.7,-587.8 -138,-279.5 -158.3,-595.4 -58.1,-889.6 84.1,-246.6 258.5,-445.6 491.8,-560.4 233.2,-114.9 497.3,-131.7 743.2,-48.4 110,37.9 168.8,156.9 131.7,266.9 -37.1,110 -156.9,168.8 -266.9,131 -139.4,-47.6 -290,-37.8 -422.4,28 -132.4,65.2 -231.9,178 -279.5,318.1 -63.8,188.4 -50.4,390.1 37.1,568.8 87.6,177.9 239.6,311.7 428,375.5 248.7,84.7 514.9,67.2 751,-49.1 235.4,-115.6 411.9,-316.6 496,-565.3 109.9,-323.6 87.5,-671.1 -63.8,-978.6 -151.3,-306.8 -412.6,-536.61 -736.9,-646.6 -810.5,-275.3 -1689.7,116.3 -2037.1,879.9 v 2885.4 h 1158.6 c -1.5,-566.8 -1.6,-1031.8 -1.6,-1058.6 71.5,43.1 147.6,79.6 228.6,107.1 63.2,21.5 127.3,36.7 191.8,49 0,78.7 4.4,1789.6 8.4,2235.1 206.2,-84.7 337.9,-205.1 392.7,-359.3 103.7,-292.2 -56.3,-690.8 -220.8,-980.6 v -697.9 c 36.2,29.2 95.7,89.6 129,131.9 15.1,19.1 197.6,253.3 347.1,573.3 h 2739.8 z m -4973.6,0 V 9972.5 c 380.2,-399.11 909.5,-635.14 1465.4,-645.85 -0.1,-2.84 -0.2,-5.69 -0.2,-8.56 v -691.98 z m 5393.9,5393.99 h -3008.5 c 56.1,228.2 68.5,469.4 -10.5,692.7 -125.9,355.5 -445.5,593.6 -949.9,707.6 l -253.2,57.3 -3.3,-259.6 c -4.2,-325.9 -6.8,-767.5 -8.5,-1198 H 10297.5 V 8205.79 h 1885.6 V 7833.5 c 0,-159.4 -129.7,-289 -289,-289 -159.3,0 -288.9,129.6 -288.9,289 0,116 -94.1,210.13 -210.2,210.13 -116.1,0 -210.2,-94.13 -210.2,-210.13 0,-391.1 318.2,-709.3 709.3,-709.3 391.1,0 709.3,318.2 709.3,709.3 v 372.29 h 3508.4 v 5814.31" /></g></g></svg>